<mxfile host="app.diagrams.net" modified="2023-12-15T15:51:55.522Z" agent="Mozilla/5.0 (Windows NT 10.0; Win64; x64) AppleWebKit/537.36 (KHTML, like Gecko) Chrome/120.0.0.0 Safari/537.36 Edg/120.0.0.0" etag="jX7JRpY3c4N8GCH6M5MN" version="22.1.11" type="device">
  <diagram name="Página-1" id="p4Q-tT70X0IZDJlTZ_CB">
    <mxGraphModel dx="1243" dy="760" grid="1" gridSize="10" guides="1" tooltips="1" connect="1" arrows="1" fold="1" page="1" pageScale="1" pageWidth="827" pageHeight="1169" math="0" shadow="0">
      <root>
        <mxCell id="0" />
        <mxCell id="1" parent="0" />
        <mxCell id="1nFRHoAYmDdeG8TISAmw-2" value="Usuario" style="rounded=1;arcSize=10;whiteSpace=wrap;html=1;align=center;" vertex="1" parent="1">
          <mxGeometry x="370" y="500" width="100" height="40" as="geometry" />
        </mxCell>
        <mxCell id="1nFRHoAYmDdeG8TISAmw-3" value="Foro" style="rounded=1;arcSize=10;whiteSpace=wrap;html=1;align=center;" vertex="1" parent="1">
          <mxGeometry x="30" y="280" width="100" height="40" as="geometry" />
        </mxCell>
        <mxCell id="1nFRHoAYmDdeG8TISAmw-4" value="Comparador de precios" style="rounded=1;arcSize=10;whiteSpace=wrap;html=1;align=center;" vertex="1" parent="1">
          <mxGeometry x="710" y="280" width="100" height="40" as="geometry" />
        </mxCell>
        <mxCell id="1nFRHoAYmDdeG8TISAmw-5" value="Creador de PC" style="rounded=1;arcSize=10;whiteSpace=wrap;html=1;align=center;" vertex="1" parent="1">
          <mxGeometry x="50" y="715" width="100" height="40" as="geometry" />
        </mxCell>
        <mxCell id="1nFRHoAYmDdeG8TISAmw-6" value="IA" style="rounded=1;arcSize=10;whiteSpace=wrap;html=1;align=center;" vertex="1" parent="1">
          <mxGeometry x="370" y="715" width="100" height="40" as="geometry" />
        </mxCell>
        <mxCell id="1nFRHoAYmDdeG8TISAmw-7" value="Cuestionario" style="rounded=1;arcSize=10;whiteSpace=wrap;html=1;align=center;" vertex="1" parent="1">
          <mxGeometry x="690" y="715" width="100" height="40" as="geometry" />
        </mxCell>
        <mxCell id="1nFRHoAYmDdeG8TISAmw-9" value="Realiza" style="shape=rhombus;perimeter=rhombusPerimeter;whiteSpace=wrap;html=1;align=center;" vertex="1" parent="1">
          <mxGeometry x="520" y="600" width="120" height="60" as="geometry" />
        </mxCell>
        <mxCell id="1nFRHoAYmDdeG8TISAmw-10" value="Consulta" style="shape=rhombus;perimeter=rhombusPerimeter;whiteSpace=wrap;html=1;align=center;" vertex="1" parent="1">
          <mxGeometry x="190" y="190" width="120" height="60" as="geometry" />
        </mxCell>
        <mxCell id="1nFRHoAYmDdeG8TISAmw-11" value="Pregunta" style="shape=rhombus;perimeter=rhombusPerimeter;whiteSpace=wrap;html=1;align=center;" vertex="1" parent="1">
          <mxGeometry x="190" y="270" width="120" height="60" as="geometry" />
        </mxCell>
        <mxCell id="1nFRHoAYmDdeG8TISAmw-12" value="Responde" style="shape=rhombus;perimeter=rhombusPerimeter;whiteSpace=wrap;html=1;align=center;" vertex="1" parent="1">
          <mxGeometry x="190" y="350" width="120" height="60" as="geometry" />
        </mxCell>
        <mxCell id="1nFRHoAYmDdeG8TISAmw-13" value="" style="edgeStyle=entityRelationEdgeStyle;fontSize=12;html=1;endArrow=ERmany;startArrow=ERmany;rounded=0;entryX=0;entryY=0.5;entryDx=0;entryDy=0;exitX=1;exitY=0.5;exitDx=0;exitDy=0;" edge="1" parent="1" source="1nFRHoAYmDdeG8TISAmw-11" target="1nFRHoAYmDdeG8TISAmw-2">
          <mxGeometry width="100" height="100" relative="1" as="geometry">
            <mxPoint x="390" y="510" as="sourcePoint" />
            <mxPoint x="490" y="410" as="targetPoint" />
          </mxGeometry>
        </mxCell>
        <mxCell id="1nFRHoAYmDdeG8TISAmw-14" value="" style="edgeStyle=entityRelationEdgeStyle;fontSize=12;html=1;endArrow=ERoneToMany;startArrow=ERoneToMany;rounded=0;entryX=0;entryY=0.5;entryDx=0;entryDy=0;exitX=1;exitY=0.5;exitDx=0;exitDy=0;startFill=0;" edge="1" parent="1" source="1nFRHoAYmDdeG8TISAmw-12" target="1nFRHoAYmDdeG8TISAmw-2">
          <mxGeometry width="100" height="100" relative="1" as="geometry">
            <mxPoint x="390" y="510" as="sourcePoint" />
            <mxPoint x="490" y="410" as="targetPoint" />
          </mxGeometry>
        </mxCell>
        <mxCell id="1nFRHoAYmDdeG8TISAmw-15" value="" style="edgeStyle=entityRelationEdgeStyle;fontSize=12;html=1;endArrow=ERmany;startArrow=ERmany;rounded=0;entryX=0;entryY=0.5;entryDx=0;entryDy=0;exitX=1;exitY=0.5;exitDx=0;exitDy=0;" edge="1" parent="1" source="1nFRHoAYmDdeG8TISAmw-10" target="1nFRHoAYmDdeG8TISAmw-2">
          <mxGeometry width="100" height="100" relative="1" as="geometry">
            <mxPoint x="390" y="510" as="sourcePoint" />
            <mxPoint x="490" y="410" as="targetPoint" />
          </mxGeometry>
        </mxCell>
        <mxCell id="1nFRHoAYmDdeG8TISAmw-16" value="" style="edgeStyle=entityRelationEdgeStyle;fontSize=12;html=1;endArrow=ERmany;startArrow=ERmany;rounded=0;entryX=0;entryY=0.5;entryDx=0;entryDy=0;exitX=1;exitY=0.5;exitDx=0;exitDy=0;" edge="1" parent="1" source="1nFRHoAYmDdeG8TISAmw-3" target="1nFRHoAYmDdeG8TISAmw-10">
          <mxGeometry width="100" height="100" relative="1" as="geometry">
            <mxPoint x="390" y="510" as="sourcePoint" />
            <mxPoint x="490" y="410" as="targetPoint" />
          </mxGeometry>
        </mxCell>
        <mxCell id="1nFRHoAYmDdeG8TISAmw-17" value="" style="edgeStyle=entityRelationEdgeStyle;fontSize=12;html=1;endArrow=ERmany;startArrow=ERmany;rounded=0;entryX=0;entryY=0.5;entryDx=0;entryDy=0;exitX=1;exitY=0.5;exitDx=0;exitDy=0;" edge="1" parent="1" source="1nFRHoAYmDdeG8TISAmw-3" target="1nFRHoAYmDdeG8TISAmw-11">
          <mxGeometry width="100" height="100" relative="1" as="geometry">
            <mxPoint x="390" y="510" as="sourcePoint" />
            <mxPoint x="490" y="410" as="targetPoint" />
          </mxGeometry>
        </mxCell>
        <mxCell id="1nFRHoAYmDdeG8TISAmw-18" value="" style="edgeStyle=entityRelationEdgeStyle;fontSize=12;html=1;endArrow=ERmany;startArrow=ERmany;rounded=0;entryX=0;entryY=0.5;entryDx=0;entryDy=0;" edge="1" parent="1" target="1nFRHoAYmDdeG8TISAmw-12">
          <mxGeometry width="100" height="100" relative="1" as="geometry">
            <mxPoint x="130" y="300" as="sourcePoint" />
            <mxPoint x="490" y="410" as="targetPoint" />
          </mxGeometry>
        </mxCell>
        <mxCell id="1nFRHoAYmDdeG8TISAmw-21" value="" style="edgeStyle=entityRelationEdgeStyle;fontSize=12;html=1;endArrow=ERoneToMany;rounded=0;entryX=0.5;entryY=0;entryDx=0;entryDy=0;exitX=1;exitY=1;exitDx=0;exitDy=0;" edge="1" parent="1" source="1nFRHoAYmDdeG8TISAmw-9" target="1nFRHoAYmDdeG8TISAmw-7">
          <mxGeometry width="100" height="100" relative="1" as="geometry">
            <mxPoint x="781" y="805" as="sourcePoint" />
            <mxPoint x="881" y="705" as="targetPoint" />
            <Array as="points">
              <mxPoint x="601" y="645" />
            </Array>
          </mxGeometry>
        </mxCell>
        <mxCell id="1nFRHoAYmDdeG8TISAmw-22" value="Genera resultados" style="shape=rhombus;perimeter=rhombusPerimeter;whiteSpace=wrap;html=1;align=center;" vertex="1" parent="1">
          <mxGeometry x="520" y="705" width="120" height="60" as="geometry" />
        </mxCell>
        <mxCell id="1nFRHoAYmDdeG8TISAmw-23" value="" style="edgeStyle=entityRelationEdgeStyle;fontSize=12;html=1;endArrow=ERmany;startArrow=ERmany;rounded=0;exitX=0;exitY=0.5;exitDx=0;exitDy=0;entryX=1;entryY=0.5;entryDx=0;entryDy=0;" edge="1" parent="1" source="1nFRHoAYmDdeG8TISAmw-7" target="1nFRHoAYmDdeG8TISAmw-22">
          <mxGeometry width="100" height="100" relative="1" as="geometry">
            <mxPoint x="521" y="905" as="sourcePoint" />
            <mxPoint x="790" y="605" as="targetPoint" />
          </mxGeometry>
        </mxCell>
        <mxCell id="1nFRHoAYmDdeG8TISAmw-24" value="" style="edgeStyle=entityRelationEdgeStyle;fontSize=12;html=1;endArrow=ERmany;startArrow=ERmany;rounded=0;entryX=1;entryY=0.5;entryDx=0;entryDy=0;exitX=0;exitY=0.5;exitDx=0;exitDy=0;" edge="1" parent="1" source="1nFRHoAYmDdeG8TISAmw-22" target="1nFRHoAYmDdeG8TISAmw-6">
          <mxGeometry width="100" height="100" relative="1" as="geometry">
            <mxPoint x="40" y="965" as="sourcePoint" />
            <mxPoint x="140" y="865" as="targetPoint" />
          </mxGeometry>
        </mxCell>
        <mxCell id="1nFRHoAYmDdeG8TISAmw-25" value="Realiza cuestiones" style="shape=rhombus;perimeter=rhombusPerimeter;whiteSpace=wrap;html=1;align=center;" vertex="1" parent="1">
          <mxGeometry x="360" y="600" width="120" height="60" as="geometry" />
        </mxCell>
        <mxCell id="1nFRHoAYmDdeG8TISAmw-27" value="" style="edgeStyle=entityRelationEdgeStyle;fontSize=12;html=1;endArrow=ERmany;rounded=0;entryX=0.5;entryY=0;entryDx=0;entryDy=0;exitX=0.5;exitY=1;exitDx=0;exitDy=0;" edge="1" parent="1" source="1nFRHoAYmDdeG8TISAmw-25" target="1nFRHoAYmDdeG8TISAmw-6">
          <mxGeometry width="100" height="100" relative="1" as="geometry">
            <mxPoint x="390" y="895" as="sourcePoint" />
            <mxPoint x="450" y="775" as="targetPoint" />
          </mxGeometry>
        </mxCell>
        <mxCell id="1nFRHoAYmDdeG8TISAmw-28" value="Añade precio a seguimiento" style="shape=rhombus;perimeter=rhombusPerimeter;whiteSpace=wrap;html=1;align=center;" vertex="1" parent="1">
          <mxGeometry x="530" y="190" width="120" height="60" as="geometry" />
        </mxCell>
        <mxCell id="1nFRHoAYmDdeG8TISAmw-29" value="" style="edgeStyle=entityRelationEdgeStyle;fontSize=12;html=1;endArrow=ERmany;startArrow=ERmany;rounded=0;entryX=0;entryY=0.5;entryDx=0;entryDy=0;exitX=1;exitY=0.5;exitDx=0;exitDy=0;" edge="1" parent="1" source="1nFRHoAYmDdeG8TISAmw-2" target="1nFRHoAYmDdeG8TISAmw-28">
          <mxGeometry width="100" height="100" relative="1" as="geometry">
            <mxPoint x="470" y="300" as="sourcePoint" />
            <mxPoint x="460" y="220" as="targetPoint" />
          </mxGeometry>
        </mxCell>
        <mxCell id="1nFRHoAYmDdeG8TISAmw-30" value="Consulta precio" style="shape=rhombus;perimeter=rhombusPerimeter;whiteSpace=wrap;html=1;align=center;" vertex="1" parent="1">
          <mxGeometry x="530" y="270" width="120" height="60" as="geometry" />
        </mxCell>
        <mxCell id="1nFRHoAYmDdeG8TISAmw-31" value="" style="edgeStyle=entityRelationEdgeStyle;fontSize=12;html=1;endArrow=ERmany;startArrow=ERmany;rounded=0;entryX=1;entryY=0.5;entryDx=0;entryDy=0;" edge="1" parent="1" source="1nFRHoAYmDdeG8TISAmw-30" target="1nFRHoAYmDdeG8TISAmw-2">
          <mxGeometry width="100" height="100" relative="1" as="geometry">
            <mxPoint x="360" y="320" as="sourcePoint" />
            <mxPoint x="460" y="220" as="targetPoint" />
          </mxGeometry>
        </mxCell>
        <mxCell id="1nFRHoAYmDdeG8TISAmw-32" value="Anula seguimiento" style="shape=rhombus;perimeter=rhombusPerimeter;whiteSpace=wrap;html=1;align=center;" vertex="1" parent="1">
          <mxGeometry x="530" y="350" width="120" height="60" as="geometry" />
        </mxCell>
        <mxCell id="1nFRHoAYmDdeG8TISAmw-33" value="" style="edgeStyle=entityRelationEdgeStyle;fontSize=12;html=1;endArrow=ERmany;startArrow=ERmany;rounded=0;entryX=0;entryY=0.5;entryDx=0;entryDy=0;exitX=1;exitY=0.5;exitDx=0;exitDy=0;" edge="1" parent="1" source="1nFRHoAYmDdeG8TISAmw-2" target="1nFRHoAYmDdeG8TISAmw-32">
          <mxGeometry width="100" height="100" relative="1" as="geometry">
            <mxPoint x="360" y="320" as="sourcePoint" />
            <mxPoint x="460" y="220" as="targetPoint" />
          </mxGeometry>
        </mxCell>
        <mxCell id="1nFRHoAYmDdeG8TISAmw-34" value="" style="edgeStyle=entityRelationEdgeStyle;fontSize=12;html=1;endArrow=ERmany;startArrow=ERmany;rounded=0;entryX=0;entryY=0.5;entryDx=0;entryDy=0;exitX=1;exitY=0.5;exitDx=0;exitDy=0;" edge="1" parent="1" source="1nFRHoAYmDdeG8TISAmw-28" target="1nFRHoAYmDdeG8TISAmw-4">
          <mxGeometry width="100" height="100" relative="1" as="geometry">
            <mxPoint x="330" y="230" as="sourcePoint" />
            <mxPoint x="430" y="130" as="targetPoint" />
          </mxGeometry>
        </mxCell>
        <mxCell id="1nFRHoAYmDdeG8TISAmw-35" value="" style="edgeStyle=entityRelationEdgeStyle;fontSize=12;html=1;endArrow=ERmany;startArrow=ERmany;rounded=0;exitX=1;exitY=0.5;exitDx=0;exitDy=0;entryX=0;entryY=0.5;entryDx=0;entryDy=0;" edge="1" parent="1" source="1nFRHoAYmDdeG8TISAmw-30" target="1nFRHoAYmDdeG8TISAmw-4">
          <mxGeometry width="100" height="100" relative="1" as="geometry">
            <mxPoint x="330" y="230" as="sourcePoint" />
            <mxPoint x="430" y="130" as="targetPoint" />
          </mxGeometry>
        </mxCell>
        <mxCell id="1nFRHoAYmDdeG8TISAmw-36" value="" style="edgeStyle=entityRelationEdgeStyle;fontSize=12;html=1;endArrow=ERmany;startArrow=ERmany;rounded=0;entryX=0;entryY=0.5;entryDx=0;entryDy=0;" edge="1" parent="1" source="1nFRHoAYmDdeG8TISAmw-32" target="1nFRHoAYmDdeG8TISAmw-4">
          <mxGeometry width="100" height="100" relative="1" as="geometry">
            <mxPoint x="330" y="230" as="sourcePoint" />
            <mxPoint x="430" y="130" as="targetPoint" />
          </mxGeometry>
        </mxCell>
        <mxCell id="1nFRHoAYmDdeG8TISAmw-37" value="Obtener datos &lt;br&gt;de la API" style="shape=rhombus;perimeter=rhombusPerimeter;whiteSpace=wrap;html=1;align=center;" vertex="1" parent="1">
          <mxGeometry x="870" y="230" width="120" height="60" as="geometry" />
        </mxCell>
        <mxCell id="1nFRHoAYmDdeG8TISAmw-38" value="" style="edgeStyle=entityRelationEdgeStyle;fontSize=12;html=1;endArrow=ERmany;startArrow=ERmany;rounded=0;entryX=0;entryY=0.5;entryDx=0;entryDy=0;exitX=1;exitY=0.5;exitDx=0;exitDy=0;" edge="1" parent="1" source="1nFRHoAYmDdeG8TISAmw-4" target="1nFRHoAYmDdeG8TISAmw-37">
          <mxGeometry width="100" height="100" relative="1" as="geometry">
            <mxPoint x="710" y="480" as="sourcePoint" />
            <mxPoint x="810" y="380" as="targetPoint" />
          </mxGeometry>
        </mxCell>
        <mxCell id="1nFRHoAYmDdeG8TISAmw-39" value="Comparar precios" style="shape=rhombus;perimeter=rhombusPerimeter;whiteSpace=wrap;html=1;align=center;" vertex="1" parent="1">
          <mxGeometry x="870" y="310" width="120" height="60" as="geometry" />
        </mxCell>
        <mxCell id="1nFRHoAYmDdeG8TISAmw-40" value="" style="edgeStyle=entityRelationEdgeStyle;fontSize=12;html=1;endArrow=ERmany;startArrow=ERmany;rounded=0;entryX=0;entryY=0.5;entryDx=0;entryDy=0;" edge="1" parent="1" target="1nFRHoAYmDdeG8TISAmw-39">
          <mxGeometry width="100" height="100" relative="1" as="geometry">
            <mxPoint x="810" y="300" as="sourcePoint" />
            <mxPoint x="460" y="290" as="targetPoint" />
          </mxGeometry>
        </mxCell>
        <mxCell id="1nFRHoAYmDdeG8TISAmw-44" value="Alerta de precio" style="rounded=1;arcSize=10;whiteSpace=wrap;html=1;align=center;" vertex="1" parent="1">
          <mxGeometry x="880" y="420" width="100" height="40" as="geometry" />
        </mxCell>
        <mxCell id="1nFRHoAYmDdeG8TISAmw-45" value="" style="edgeStyle=entityRelationEdgeStyle;fontSize=12;html=1;endArrow=ERmany;startArrow=ERmany;rounded=0;entryX=0.5;entryY=1;entryDx=0;entryDy=0;exitX=0.5;exitY=0;exitDx=0;exitDy=0;" edge="1" parent="1" source="1nFRHoAYmDdeG8TISAmw-44" target="1nFRHoAYmDdeG8TISAmw-39">
          <mxGeometry width="100" height="100" relative="1" as="geometry">
            <mxPoint x="500" y="390" as="sourcePoint" />
            <mxPoint x="930" y="430" as="targetPoint" />
          </mxGeometry>
        </mxCell>
        <mxCell id="1nFRHoAYmDdeG8TISAmw-46" value="Alerta de foro" style="rounded=1;arcSize=10;whiteSpace=wrap;html=1;align=center;" vertex="1" parent="1">
          <mxGeometry x="200" y="460" width="100" height="40" as="geometry" />
        </mxCell>
        <mxCell id="1nFRHoAYmDdeG8TISAmw-47" value="" style="edgeStyle=entityRelationEdgeStyle;fontSize=12;html=1;endArrow=ERmany;startArrow=ERmany;rounded=0;entryX=0.5;entryY=1;entryDx=0;entryDy=0;exitX=0.5;exitY=0;exitDx=0;exitDy=0;" edge="1" parent="1" source="1nFRHoAYmDdeG8TISAmw-46" target="1nFRHoAYmDdeG8TISAmw-12">
          <mxGeometry width="100" height="100" relative="1" as="geometry">
            <mxPoint x="-180" y="410" as="sourcePoint" />
            <mxPoint x="250" y="370" as="targetPoint" />
          </mxGeometry>
        </mxCell>
        <mxCell id="1nFRHoAYmDdeG8TISAmw-48" value="Utiliza" style="shape=rhombus;perimeter=rhombusPerimeter;whiteSpace=wrap;html=1;align=center;" vertex="1" parent="1">
          <mxGeometry x="200" y="600" width="120" height="60" as="geometry" />
        </mxCell>
        <mxCell id="1nFRHoAYmDdeG8TISAmw-49" value="Utiliza" style="shape=rhombus;perimeter=rhombusPerimeter;whiteSpace=wrap;html=1;align=center;" vertex="1" parent="1">
          <mxGeometry x="200" y="705" width="120" height="60" as="geometry" />
        </mxCell>
        <mxCell id="1nFRHoAYmDdeG8TISAmw-50" value="" style="edgeStyle=entityRelationEdgeStyle;fontSize=12;html=1;endArrow=ERmany;startArrow=ERmany;rounded=0;exitX=1;exitY=0.5;exitDx=0;exitDy=0;entryX=0;entryY=0.5;entryDx=0;entryDy=0;" edge="1" parent="1" source="1nFRHoAYmDdeG8TISAmw-5" target="1nFRHoAYmDdeG8TISAmw-49">
          <mxGeometry width="100" height="100" relative="1" as="geometry">
            <mxPoint x="350" y="620" as="sourcePoint" />
            <mxPoint x="450" y="520" as="targetPoint" />
          </mxGeometry>
        </mxCell>
        <mxCell id="1nFRHoAYmDdeG8TISAmw-51" value="" style="edgeStyle=entityRelationEdgeStyle;fontSize=12;html=1;endArrow=ERmany;startArrow=ERmany;rounded=0;entryX=0.5;entryY=1;entryDx=0;entryDy=0;exitX=0.5;exitY=0;exitDx=0;exitDy=0;" edge="1" parent="1" source="1nFRHoAYmDdeG8TISAmw-49" target="1nFRHoAYmDdeG8TISAmw-48">
          <mxGeometry width="100" height="100" relative="1" as="geometry">
            <mxPoint x="350" y="620" as="sourcePoint" />
            <mxPoint x="450" y="520" as="targetPoint" />
          </mxGeometry>
        </mxCell>
        <mxCell id="1nFRHoAYmDdeG8TISAmw-52" value="" style="edgeStyle=entityRelationEdgeStyle;fontSize=12;html=1;endArrow=ERmany;startArrow=ERmany;rounded=0;entryX=0;entryY=0.5;entryDx=0;entryDy=0;exitX=1;exitY=0.5;exitDx=0;exitDy=0;" edge="1" parent="1" source="1nFRHoAYmDdeG8TISAmw-49" target="1nFRHoAYmDdeG8TISAmw-6">
          <mxGeometry width="100" height="100" relative="1" as="geometry">
            <mxPoint x="350" y="620" as="sourcePoint" />
            <mxPoint x="450" y="520" as="targetPoint" />
          </mxGeometry>
        </mxCell>
        <mxCell id="1nFRHoAYmDdeG8TISAmw-53" value="" style="edgeStyle=entityRelationEdgeStyle;fontSize=12;html=1;endArrow=ERmany;startArrow=ERmany;rounded=0;entryX=0.25;entryY=1;entryDx=0;entryDy=0;exitX=0.5;exitY=0;exitDx=0;exitDy=0;" edge="1" parent="1" source="1nFRHoAYmDdeG8TISAmw-48" target="1nFRHoAYmDdeG8TISAmw-2">
          <mxGeometry width="100" height="100" relative="1" as="geometry">
            <mxPoint x="350" y="620" as="sourcePoint" />
            <mxPoint x="450" y="520" as="targetPoint" />
          </mxGeometry>
        </mxCell>
        <mxCell id="1nFRHoAYmDdeG8TISAmw-54" value="" style="edgeStyle=entityRelationEdgeStyle;fontSize=12;html=1;endArrow=ERmany;startArrow=ERmany;rounded=0;exitX=0.5;exitY=0;exitDx=0;exitDy=0;" edge="1" parent="1" source="1nFRHoAYmDdeG8TISAmw-25">
          <mxGeometry width="100" height="100" relative="1" as="geometry">
            <mxPoint x="350" y="620" as="sourcePoint" />
            <mxPoint x="420" y="540" as="targetPoint" />
          </mxGeometry>
        </mxCell>
        <mxCell id="1nFRHoAYmDdeG8TISAmw-55" value="" style="edgeStyle=entityRelationEdgeStyle;fontSize=12;html=1;endArrow=ERmany;startArrow=ERmany;rounded=0;entryX=0.75;entryY=1;entryDx=0;entryDy=0;exitX=0.5;exitY=0;exitDx=0;exitDy=0;" edge="1" parent="1" source="1nFRHoAYmDdeG8TISAmw-9" target="1nFRHoAYmDdeG8TISAmw-2">
          <mxGeometry width="100" height="100" relative="1" as="geometry">
            <mxPoint x="350" y="620" as="sourcePoint" />
            <mxPoint x="450" y="520" as="targetPoint" />
          </mxGeometry>
        </mxCell>
      </root>
    </mxGraphModel>
  </diagram>
</mxfile>
